<svg id="Layer_1" data-name="Layer 1" xmlns="http://www.w3.org/2000/svg" viewBox="0 0 2000 1161"><defs><style>.cls-1,.cls-2{fill:#386db4;}.cls-2{fill-rule:evenodd;}</style></defs><title>blue-stacked</title><polygon class="cls-1" points="272.18 785.81 205.5 785.81 205.5 749.76 378.51 749.76 378.51 785.81 311.83 785.81 311.83 960.03 272.18 960.03 272.18 785.81"/><path class="cls-1" d="M403.13,811.94v77.5c0,22.53,12.32,39.65,35.75,39.65,22.53,0,37.84-18.93,37.84-41.45v-75.7h36.35V960.33H480.33l-2.41-20.13c-15.31,15-29.43,22.23-50.16,22.23-35.44,0-61.27-26.73-61.27-72.69v-77.8Z"/><path class="cls-1" d="M579.44,811.94l2.7,17.12c11.42-18.32,26.74-21,41.76-21,15.31,0,30,6,38.14,14.11L645.52,854c-7.5-6.31-14.41-9.62-26.43-9.62-19.22,0-37,10.21-37,37.55V960H545.5V811.94Z"/><path class="cls-1" d="M784.89,960v-77.5c0-22.53-12.32-39.65-35.75-39.65-22.53,0-37.84,18.93-37.84,41.45V960H675V811.64h32.74l2.41,20.13c15-14.72,30-22.23,48.66-22.23,34.84,0,62.77,26.13,62.77,72.69V960Z"/><polygon class="cls-1" points="885.16 750.07 885.16 871.42 935.02 811.94 978.87 811.94 978.87 814.05 918.5 881.63 987.28 957.33 987.28 960.03 943.13 960.03 885.16 893.04 885.16 960.03 848.51 960.03 848.51 750.07 885.16 750.07"/><path class="cls-1" d="M1028,899.05c2.41,18.32,18.32,31.54,44.15,31.54,13.52,0,31.25-5.11,39.66-13.82l23.43,23.13c-15.63,16.22-41.16,24-63.68,24-51.07,0-81.41-31.54-81.41-79,0-45,30.64-77.49,78.7-77.49,49.57,0,80.5,30.64,74.79,91.61Zm80.5-30.34c-2.4-19.22-17.42-28.83-38.45-28.83-19.82,0-36,9.61-41.45,28.83Z"/><polygon class="cls-1" points="1314.88 811.94 1224.46 1021.9 1184.21 1021.9 1211.85 957.62 1152.68 811.94 1195.33 811.94 1217.85 875.92 1231.97 917.67 1247.29 876.82 1274.33 811.94 1314.88 811.94"/><rect class="cls-1" x="1337.09" y="749.76" width="39.35" height="210.26"/><path class="cls-1" d="M1549.45,800.53c-7.21-12-27-23.43-49.86-23.43-29.44,0-43.56,12.32-43.56,27.93,0,18.33,21.63,23.43,46.86,26.44,43.86,5.41,84.71,16.82,84.71,67,0,46.86-41.46,67-88.31,67-43,0-76-13.21-91.62-51.66l33-17.12c9.31,23.13,33.65,33.34,59.18,33.34,24.93,0,48.36-8.71,48.36-31.54,0-19.83-20.73-27.94-48.66-30.94-43-5.1-82.61-16.52-82.61-63.68,0-43.25,42.66-61,81.41-61.27,32.73,0,66.68,9.31,82.6,41.75Z"/><path class="cls-1" d="M1717.35,898.15h-59.48V960h-39.64V749.76c33,0,66.08-.29,99.12-.29,102.72,0,103,148.68,0,148.68m-59.48-36.34h59.48c50.76,0,50.46-74.5,0-74.5h-59.48Z"/><path class="cls-1" d="M1199.46,207.9a258.47,258.47,0,0,1,0,330.2l-36.92-36.86a206.82,206.82,0,0,0,26.08-213.87l-26.37,26.36-11.12,11.14a158.63,158.63,0,0,1-23.21,141.69,160,160,0,0,1-34.3,34.38l34.62,34.61,36.89,36.91,34.44,34.44a315,315,0,0,0,34.3-34.33,307.6,307.6,0,0,0-34.35-433.47l-34.41,34.43a264.32,264.32,0,0,1,34.35,34.37"/><path class="cls-1" d="M800.52,538.09a262.07,262.07,0,0,1-27.72-40.81,258.39,258.39,0,0,1,27.75-289.41l36.9,36.89a206.62,206.62,0,0,0-26,213.9l26.36-26.34,11.13-11.18a158.62,158.62,0,0,1,57.53-176.06l-34.7-34.63-36.87-36.91-34.4-34.39a301.53,301.53,0,0,0-34.33,34.32,307.13,307.13,0,0,0,0,399.07,302.43,302.43,0,0,0,34.33,34.33l34.38-34.47a259,259,0,0,1-34.35-34.31"/><path class="cls-1" d="M1128.23,210.43l-34.65,34.63a160,160,0,0,1,34.31,34.32l34.64-34.65a208.81,208.81,0,0,0-34.3-34.3"/><path class="cls-1" d="M872.06,466.56l-34.6,34.69a207.35,207.35,0,0,0,34.26,34.29l34.69-34.61a160.62,160.62,0,0,1-34.35-34.37"/><path class="cls-2" d="M1000,279.38a93.59,93.59,0,1,0,93.6,93.59,93.6,93.6,0,0,0-93.6-93.59m0,144.4A50.81,50.81,0,1,1,1050.79,373,50.81,50.81,0,0,1,1000,423.78"/></svg>