<?xml version="1.0" encoding="UTF-8"?><svg id="a" xmlns="http://www.w3.org/2000/svg" viewBox="0 0 1668.17 1417.32"><defs><style>.b,.c{fill:#386db1;}.c{fill-rule:evenodd;}</style></defs><path class="b" d="M1311.33,313.64c25.06,30.14,47.41,62.97,66.46,97.72,48.39,88.26,76.04,189.58,76.15,297.31-.04,150.17-53.68,287.83-142.61,395.04l-88.34-88.2c66.9-84.43,106.74-191.12,106.74-306.8,.05-72.99-15.88-142.53-44.35-204.94l-63.09,63.09-26.59,26.64c11.59,36.36,17.8,75.07,17.76,115.16,.03,83.63-27.11,161.17-73.3,223.87-23.05,31.45-50.77,59.23-82.07,82.24l82.83,82.82,88.26,88.31,82.41,82.41c29.4-25.23,56.93-52.74,82.09-82.14,109.96-128.7,176.42-295.45,176.35-477.57,0-139.83-39.21-270.72-107.32-382.18-20.5-33.67-43.69-65.5-69.03-95.16-25.13-29.45-52.7-57.11-82.2-82.26l-82.33,82.4c29.91,24.88,57.43,52.38,82.19,82.23"/><path class="b" d="M356.79,1103.68c-24.96-30.18-47.26-62.93-66.32-97.65-48.5-88.3-76.14-189.67-76.26-297.37,.15-150.03,53.69-287.78,142.65-395.09l88.29,88.26c-66.75,84.5-106.69,191.12-106.75,306.78,.03,72.94,15.93,142.43,44.48,205.01l63.07-63.03,26.63-26.75c-11.6-36.29-17.91-75.08-17.93-115.21,.05-83.62,27.19-161.17,73.43-223.96,22.94-31.35,50.64-59.13,82.14-82.08l-83.01-82.88-88.22-88.31-82.29-82.28c-29.53,25.1-57.04,52.61-82.15,82.13-109.94,128.48-176.4,295.27-176.4,477.4,0,139.88,39.24,270.74,107.45,382.26,20.39,33.59,43.59,65.43,69,95.18,25.13,29.52,52.54,56.97,82.13,82.15l82.26-82.49c-29.8-24.6-57.4-52.23-82.19-82.08"/><path class="b" d="M1140.89,319.7l-82.89,82.85c31.32,23,59.17,50.83,82.08,82.11l82.89-82.9c-24.01-30.35-51.59-58.03-82.08-82.06"/><path class="b" d="M527.97,932.53l-82.78,83c23.95,30.45,51.6,57.98,81.97,82.04l82.99-82.8c-31.31-23-59.15-50.85-82.19-82.24"/><path class="c" d="M834.03,484.66c-123.68,0-223.95,100.27-223.95,223.93s100.27,223.95,223.95,223.95,223.96-100.27,223.96-223.95-100.27-223.93-223.96-223.93m0,345.52c-67.15,0-121.58-54.44-121.58-121.59s54.42-121.56,121.58-121.56,121.59,54.43,121.59,121.56-54.43,121.59-121.59,121.59"/></svg>