<svg id="Layer_1" data-name="Layer 1" xmlns="http://www.w3.org/2000/svg" viewBox="0 0 100 100"><defs><style>.cls-1,.cls-2{fill:#386db1;}.cls-2{fill-rule:evenodd;}</style></defs><path class="cls-1" d="M80.63,24.65a39.09,39.09,0,0,1,4.26,6.27,39.68,39.68,0,0,1-4.26,44.43L75,69.69a31.74,31.74,0,0,0,4-32.84l-4,4-1.7,1.71A24.41,24.41,0,0,1,74.35,50a24.13,24.13,0,0,1-4.71,14.37,24.61,24.61,0,0,1-5.26,5.28L69.69,75l5.67,5.67,5.28,5.29a47.77,47.77,0,0,0,5.27-5.28,47.15,47.15,0,0,0,0-61.28,47.77,47.77,0,0,0-5.27-5.28l-5.29,5.29a40.52,40.52,0,0,1,5.28,5.28"/><path class="cls-1" d="M19.37,75.35a40.92,40.92,0,0,1-4.26-6.27,39.7,39.7,0,0,1,4.26-44.44L25,30.31a31.74,31.74,0,0,0-4,32.84l4.05-4,1.71-1.72A24.41,24.41,0,0,1,25.65,50a24.39,24.39,0,0,1,10-19.64L30.31,25l-5.67-5.67-5.28-5.28A47.12,47.12,0,0,0,9.67,74.53a45.88,45.88,0,0,0,4.42,6.11,47.68,47.68,0,0,0,5.27,5.27l5.28-5.29a39.76,39.76,0,0,1-5.27-5.27"/><path class="cls-1" d="M69.69,25l-5.32,5.31a24.84,24.84,0,0,1,5.27,5.27L75,30.3A32,32,0,0,0,69.69,25"/><path class="cls-1" d="M30.35,64.37,25,69.69A32,32,0,0,0,30.3,75l5.33-5.32a24.66,24.66,0,0,1-5.28-5.27"/><path class="cls-2" d="M50,35.62A14.38,14.38,0,1,0,64.37,50,14.38,14.38,0,0,0,50,35.62M50,57.8A7.81,7.81,0,1,1,57.8,50,7.81,7.81,0,0,1,50,57.8"/></svg>