<svg id="Layer_1" data-name="Layer 1" xmlns="http://www.w3.org/2000/svg" viewBox="0 0 2545.85 707.55"><defs><style>.cls-1,.cls-2{fill:#386db4;}.cls-2{fill-rule:evenodd;}</style></defs><title>blue-horizontal</title><polygon class="cls-1" points="929.43 292.81 867.36 292.81 867.36 259.26 1028.43 259.26 1028.43 292.81 966.35 292.81 966.35 455.01 929.43 455.01 929.43 292.81"/><path class="cls-1" d="M1051.35,317.14v72.15c0,21,11.47,36.91,33.28,36.91,21,0,35.23-17.61,35.23-38.59V317.14h33.84V455.29h-30.48L1121,436.55c-14.26,14-27.4,20.7-46.7,20.7-33,0-57-24.89-57-67.68V317.14Z"/><path class="cls-1" d="M1215.49,317.14l2.52,15.94c10.63-17.06,24.89-19.57,38.87-19.57,14.26,0,28,5.59,35.51,13.14L1277,356.3c-7-5.88-13.42-8.95-24.61-8.95-17.89,0-34.39,9.5-34.39,34.95V455h-34.12V317.14Z"/><path class="cls-1" d="M1406.76,455V382.86c0-21-11.47-36.91-33.28-36.91-21,0-35.23,17.62-35.23,38.59V455h-33.84V316.86h30.48l2.24,18.74c14-13.7,28-20.69,45.3-20.69,32.44,0,58.45,24.33,58.45,67.67V455Z"/><polygon class="cls-1" points="1500.11 259.54 1500.11 372.51 1546.53 317.14 1587.36 317.14 1587.36 319.1 1531.15 382.02 1595.18 452.49 1595.18 455.01 1554.08 455.01 1500.11 392.65 1500.11 455.01 1465.99 455.01 1465.99 259.54 1500.11 259.54"/><path class="cls-1" d="M1633.12,398.24c2.24,17.06,17.06,29.36,41.11,29.36,12.58,0,29.08-4.75,36.91-12.86L1733,436.27c-14.54,15.1-38.31,22.37-59.28,22.37-47.54,0-75.78-29.36-75.78-73.54,0-42,28.52-72.15,73.27-72.15,46.14,0,74.94,28.53,69.62,85.29Zm75-28.24c-2.24-17.9-16.22-26.85-35.8-26.85-18.46,0-33.56,9-38.59,26.85Z"/><polygon class="cls-1" points="1900.17 317.14 1815.99 512.61 1778.53 512.61 1804.25 452.77 1749.16 317.14 1788.87 317.14 1809.84 376.71 1822.99 415.58 1837.25 377.55 1862.42 317.14 1900.17 317.14"/><rect class="cls-1" x="1920.85" y="259.26" width="36.63" height="195.75"/><path class="cls-1" d="M2118.55,306.52c-6.71-11.19-25.17-21.81-46.42-21.81-27.4,0-40.55,11.46-40.55,26,0,17.06,20.14,21.82,43.63,24.61,40.83,5,78.86,15.66,78.86,62.36,0,43.62-38.59,62.36-82.22,62.36-40,0-70.75-12.3-85.29-48.1L2017.32,396c8.67,21.54,31.32,31,55.09,31,23.21,0,45-8.1,45-29.36,0-18.46-19.29-26-45.3-28.8-40-4.76-76.9-15.38-76.9-59.29,0-40.27,39.71-56.76,75.78-57,30.48,0,62.08,8.67,76.9,38.87Z"/><path class="cls-1" d="M2274.86,397.4h-55.37V455h-36.91V259.26c30.76,0,61.52-.28,92.28-.28,95.64,0,95.92,138.42,0,138.42m-55.37-33.83h55.37c47.26,0,47-69.36,0-69.36h-55.37Z"/><path class="cls-1" d="M671.2,200.07a240.64,240.64,0,0,1,0,307.42l-34.37-34.32a192.57,192.57,0,0,0,24.28-199.12L636.56,298.6,626.21,309A147.74,147.74,0,0,1,604.6,440.88a149.07,149.07,0,0,1-31.93,32l32.23,32.23,34.34,34.36,32.06,32.07a295.65,295.65,0,0,0,31.94-32,286.39,286.39,0,0,0-32-403.56l-32,32.06a245.33,245.33,0,0,1,32,32"/><path class="cls-1" d="M299.79,507.48a243.74,243.74,0,0,1-25.8-38,240.56,240.56,0,0,1,25.83-269.43l34.36,34.34A192.35,192.35,0,0,0,310,433.53L334.49,409l10.36-10.41a147.65,147.65,0,0,1,53.55-163.9l-32.3-32.25-34.33-34.36-32-32a281.13,281.13,0,0,0-32,32,286.22,286.22,0,0,0,32,403.49l32-32.1a242.41,242.41,0,0,1-32-31.93"/><path class="cls-1" d="M604.88,202.43l-32.25,32.24a149.11,149.11,0,0,1,31.94,32l32.25-32.26a193.35,193.35,0,0,0-31.94-31.93"/><path class="cls-1" d="M366.4,440.88l-32.21,32.3a193,193,0,0,0,31.9,31.92l32.29-32.22a149.3,149.3,0,0,1-32-32"/><path class="cls-2" d="M485.49,266.62a87.13,87.13,0,1,0,87.14,87.13,87.13,87.13,0,0,0-87.14-87.13m0,134.44a47.31,47.31,0,1,1,47.31-47.31,47.31,47.31,0,0,1-47.31,47.31"/></svg>